PathFileType	4	(X/Y/Z)	C:/Users/beibeiliu/ov580/test_trc/User2\sequence.9_training_dense_left.trc
DataRate	CameraRate	NumFrames	NumMarkers	Units	OrigDataRate	OrigDataStartFrame	OrigNumFrames
120	120	14	19	mm	120	89	353
Frame#	Time	ThumbCMC			ThumbMCP			ThumbIP			ThumbTip			IndexMCP			IndexPIP			IndexTip			MiddleMCP			MiddlePIP			MiddleTip			RingMCP			RingPIP			RingTip			PinkyMCP			PinkyPIP			PinkyTip			BackHand1			BackHand2			BackHand3	
		X0	Y0	Z0	X1	Y1	Z1	X2	Y2	Z2	X3	Y3	Z3	X4	Y4	Z4	X5	Y5	Z5	X6	Y6	Z6	X7	Y7	Z7	X8	Y8	Z8	X9	Y9	Z9	X10	Y10	Z10	X11	Y11	Z11	X12	Y12	Z12	X13	Y13	Z13	X14	Y14	Z14	X15	Y15	Z15	X16	Y16	Z16	X17	Y17	Z17	X18	Y18	Z18	
88	0.733333	-152.436	41.8476	87.8119	-138.627	35.5285	62.3595	-127.199	20.1069	29.1553	-117.948	5.50091	12.1187	-168.711	-14.1957	27.841	-166.495	-35.6148	4.21552	-168.955	-55.2281	-9.52939	-183.504	-34.8721	26.6626	-178.903	-55.7986	6.95638	-177.117	-73.5105	-11.9646	-195.562	-43.484	46.1653	-189.072	-60.7891	26.3962	-184.984	-81.7326	6.35666	-199.639	-45.7577	66.7253	-194.392	-63.7804	49.6969	-194.375	-80.8099	32.4899	-207.731	-0.38769	85.1969	-214.951	20.398	106.242	-185.991	29.2283	75.8097	
89	0.741667	-155.875	50.308	86.3739	-142.335	47.1684	59.8302	-129.204	32.7081	29.8887	-115.746	27.0575	12.6983	-157.721	-8.42169	25.9661	-150.783	-28.8971	5.08945	-146.435	-47.5781	-14.373	-166.842	-30.9322	26.1245	-156.337	-48.6894	5.96124	-153.176	-70.3774	-11.966	-173.955	-41.354	42.8244	-166.687	-59.8969	25.9885	-155.47	-75.9335	5.41488	-180.69	-47.3987	69.6488	-169.84	-63.1757	48.6019	-162.31	-76.9616	27.7305	-198.23	-6.88943	86.2479	-210.662	13.8778	107.406	-186.645	31.2012	74.9776	
90	0.75	-161.907	61.5009	84.3161	-147.943	56.5474	57.2686	-131.771	47.2102	23.1728	-119.22	40.1919	6.40755	-151.178	-0.725979	25.4908	-140.422	-16.7998	6.50218	-129.237	-38.306	-13.6755	-153.39	-21.2151	28.0101	-139.812	-38.921	8.46976	-129.224	-61.4115	-14.0415	-156.636	-34.2599	43.2934	-144.283	-51.9523	24.072	-131.202	-70.7271	1.68933	-158.405	-45.6364	65.2019	-146.725	-53.8204	47.6732	-137.154	-66.062	28.8131	-184.653	-4.45585	83.6367	-200.825	6.93109	106.319	-187.403	33.2029	74.1161	
91	0.758333	-170.727	64.9397	80.2895	-158.453	67.0615	51.3915	-142.089	60.475	21.0428	-128.899	56.9418	4.03716	-143.926	6.69553	17.1297	-131.376	-7.79415	2.68008	-117.484	-23.6559	-16.2504	-143.495	-11.5377	23.9726	-123.851	-28.597	0.966642	-110.642	-46.9478	-17.1616	-140.123	-30.0654	36.6	-126.581	-42.6675	23.4079	-110.674	-55.686	2.26253	-141.353	-33.4489	66.2607	-125.847	-46.5092	45.5093	-115.438	-57.9512	24.8427	-175.905	-5.58841	80.5793	-194.314	4.66298	102.584	-184.948	29.0316	72.635	
92	0.766667	-177.457	65.2298	79.6222	-167.529	68.1812	52.475	-153.538	64.2673	16.5467	-140.047	63.3447	-1.43708	-142.812	14.7777	18.402	-127.051	1.92361	-2.91063	-111.929	-10.1963	-18.1638	-134.729	-7.71614	21.6098	-114.261	-17.4007	0.771252	-97.7155	-29.9385	-23.6329	-128.286	-21.8232	36.0158	-111.264	-30.3637	17.5213	-97.3782	-36.4766	-2.93017	-127.047	-26.9936	60.7156	-111.586	-32.8132	41.273	-99.0946	-40.7816	18.6357	-166.297	-6.99629	80.9195	-188.781	4.42135	104.201	-184.929	25.8757	75.8834	
93	0.775	-183.132	62.2599	79.0279	-177.192	66.1988	46.8935	-164.895	66.9255	17.6337	-156.645	71.9991	-5.65256	-146.095	22.1612	13.3867	-128.79	12.6047	-6.45944	-110.285	1.28949	-27.7532	-129.807	1.66494	13.4218	-112.362	-4.59083	-4.42325	-92.4179	-16.6877	-25.6978	-118.845	-12.7695	30.3787	-104.435	-16.0954	14.6424	-88.3409	-20.3482	-11.544	-118.746	-14.5296	54.5598	-102.199	-19.0727	34.9609	-89.0238	-26.3334	13.5286	-161.956	-2.91219	75.4528	-180.675	3.43108	100.452	-185.557	24.4603	72.0368	
94	0.783333	-188.115	56.543	80.3158	-189.423	65.7121	46.3179	-177.852	64.7827	11.2904	-169.722	69.4743	-6.7801	-147.594	24.0823	7.59863	-130.728	15.4394	-9.34139	-114.634	9.76561	-30.1324	-131.42	7.74242	9.1756	-113.447	4.17365	-12.1748	-93.3972	-7.22147	-33.3702	-117.5	-3.67087	26.4687	-103.718	-4.24021	8.60353	-85.76	-11.1293	-16.809	-112.748	-5.96336	50.1266	-95.8579	-10.6173	34.9117	-86.5906	-16.602	10.065	-156.179	0.0127642	75.4578	-175	-1.40515	100.809	-183.119	19.8335	72.6328	
95	0.791667	-192.596	52.5855	79.8462	-197.334	61.1542	49.3658	-187.734	58.7618	13.8756	-185.64	68.1827	-8.39691	-152.449	22.0701	5.43083	-136.081	16.0459	-14.3238	-118.718	9.92431	-36.8595	-133.121	7.22394	8.49858	-120.372	7.66412	-12.25	-100.244	-1.13385	-37.6872	-117.726	-0.330057	23.3592	-105.569	0.127215	5.80706	-91.5613	-2.1997	-19.3978	-110.118	-3.42172	49.9307	-94.5313	-3.91804	23.7431	-89.1612	-6.67019	2.68305	-151.61	-3.71746	72.3974	-169.804	-0.463565	101.53	-187.243	18.636	70.0827	
96	0.8	-197.116	49.2062	79.4674	-201.732	53.1668	49.5526	-200.777	55.0878	11.0659	-196.707	59.8451	-9.45592	-162.21	20.2746	6.95928	-150.082	15.3732	-18.4744	-132.461	7.28648	-40.6791	-141.524	7.21472	9.89569	-125.953	4.57546	-17.0667	-113.392	-0.912805	-40.9202	-126.517	1.72211	18.7201	-113.484	0.869513	-2.59001	-100.794	-1.1476	-26.4215	-114.294	0.193058	41.0777	-102.042	0.415919	18.5429	-93.5867	-5.55167	-1.08821	-151.008	-3.14093	73.098	-165.852	-5.49142	101.315	-188.951	17.3971	74.9943	
97	0.808333	-201.471	45.3099	83.2553	-211.007	49.346	53.4237	-210.003	49.5184	19.8491	-211.511	52.3789	-8.62681	-175.611	14.908	9.91091	-162.835	8.26597	-19.1691	-149.707	1.00596	-42.8581	-150.159	1.76646	9.33304	-139.906	-0.191313	-21.2703	-130.129	-6.17011	-46.9081	-135.049	-1.65615	17.5683	-122.281	-3.89727	-3.87102	-114.027	-6.53952	-30.8025	-121.206	-1.44009	39.1218	-113.276	-2.16121	13.4723	-106.848	-9.2345	-7.83734	-157.292	-4.19996	72.6959	-165.636	-4.04413	107.39	-189.188	11.0953	75.8895	
98	0.816667	-211.737	42.1995	87.1464	-223.807	45.9028	57.8168	-224.478	41.5315	20.4331	-224.506	44.5137	-1.20671	-185.602	8.24835	13.3516	-177.434	1.38656	-16.1756	-168.375	-6.67968	-38.7843	-164.07	-2.89904	9.10777	-157.651	-4.83659	-17.5093	-147.701	-14.7022	-49.2311	-145.438	-6.55829	17.6219	-136.489	-8.9867	-3.97574	-133.111	-11.8162	-31.847	-131.146	-3.61539	37.9497	-126.289	-6.11402	11.3863	-121.994	-15.4624	-11.821	-160.813	-5.9721	74.1988	-167.286	-5.14026	109.499	-197.694	10.3348	83.7457	
99	0.825	-216.787	37.3451	88.4644	-232.599	38.8881	61.2768	-240.442	37.5744	28.6933	-242.735	40.0218	5.50658	-199.897	0.61167	14.9055	-195.894	-6.38632	-8.40611	-187.851	-15.9879	-35.8084	-179.679	-9.34325	12.606	-175.57	-13.3589	-19.0844	-169.996	-23.5668	-48.5391	-159.547	-12.6207	16.9927	-157.402	-14.8909	-6.25657	-155.85	-19.2231	-34.2691	-145.899	-6.81738	39.7029	-141.899	-12.0447	12.9952	-141.267	-18.6448	-10.303	-168.78	-10.234	78.2532	-174.604	-6.52676	108.516	-204.495	3.67395	89.1413	
100	0.833333	-225.706	38.4163	97.201	-246.207	36.7766	67.2404	-254.157	33.3599	35.8617	-260.836	34.4232	12.3392	-218.555	-3.88708	21.8395	-214.457	-12.8711	-2.58264	-208.001	-25.935	-30.9863	-197.051	-16.9133	12.0599	-195.42	-21.8936	-13.2664	-194.589	-32.1005	-44.1703	-178.842	-17.8511	22.1693	-177.718	-21.6618	-3.50521	-176.549	-29.5048	-33.9037	-157.495	-14.3188	37.5154	-160.968	-18.4323	12.7047	-161.802	-27.7003	-9.87682	-179.803	-12.5509	79.2298	-183.79	-5.72232	114.083	-215.624	4.42581	91.6629	
101	0.841667	-239.065	34.583	97.6184	-254.715	35.3178	74.7037	-265.657	29.1956	42.3031	-275.523	29.4465	19.3167	-236.898	-9.37423	27.8519	-236.147	-18.5185	4.12235	-230.003	-34.8318	-24.2967	-216.671	-20.591	21.4719	-215.42	-30.3463	-10.9372	-214.135	-41.6492	-35.7541	-197.871	-23.7245	24.3952	-196.077	-31.0581	-3.46612	-199.037	-36.7165	-29.2847	-174.985	-18.8947	38.8259	-180.24	-23.3008	15.3393	-181.813	-36.0319	-8.9879	-193.547	-15.0724	83.0429	-190.812	-8.37362	112.187	-228.519	-0.11555	94.5909	
